<svg width="423" height="487" viewBox="0 0 423 487" fill="none" xmlns="http://www.w3.org/2000/svg">
<circle cx="212" cy="200" r="168" stroke="white" stroke-width="64"/>
<path fill-rule="evenodd" clip-rule="evenodd" d="M212 256C225.94 256 238.69 250.907 248.491 242.48L254.48 236.491C262.907 226.69 268 213.94 268 200C268 169.072 242.928 144 212 144C181.072 144 156 169.072 156 200C156 230.928 181.072 256 212 256ZM212 280C229.248 280 245.222 274.541 258.287 265.258L388.425 395.396C341.668 437.426 279.821 463 212 463C135.062 463 65.8107 430.088 17.5575 377.575L0.572937 394.559C53.1818 451.409 128.435 487 212 487C295.164 487 370.095 451.751 422.667 395.377L405.685 378.396C405.634 378.451 405.583 378.506 405.532 378.561L275.559 248.589C285.872 235.119 292 218.275 292 200C292 155.817 256.183 120 212 120C167.817 120 132 155.817 132 200C132 244.183 167.817 280 212 280Z" fill="white"/>
</svg>
